<?xml version="1.0" encoding="utf-8"?>
<!DOCTYPE svg PUBLIC "-//W3C//DTD SVG 1.1//EN" "http://www.w3.org/Graphics/SVG/1.1/DTD/svg11.dtd">
<svg width="1056" height="816" xmlns="http://www.w3.org/2000/svg">
  <path d="M60.888769654971,16.2601752952953h0.963810056896792v0.963810056896792h-0.963810056896792z" />
  <path d="M59.5080589333121,45.1617744179265h0.963810056896792v0.963810056896792h-0.963810056896792z" />
  <path d="M770.001217246987,228.950686561386h11.4285719149879v11.4285719149879h-11.4285719149879z" />
  <path d="M753.62917935179,571.657425192957h11.4285719149879v11.4285719149879h-11.4285719149879z" />
  <path d="M734.455004080411,317.760011820942h0.244891584033562v-35.4105720684913h-1.90476214974409v-5.07936573265091h1.90476214974409v-10.1587294983485h-6.90476230108401v50.6486653325375h5.00000015133992z" />
  <path d="M708.899025293486,317.760011820942h0.324671209009677v-50.6486653325375h-0.952381074872045v50.6486653325375z" />
  <path d="M734.699913367024,236.158972373306v-9.52380976524381h-79.9798922911193v9.52380976524381z" />
  <path d="M727.795120578164,270.849497921229l3.73814749891783,-3.7381465154412m-3.73814749891783,7.55354217046571l6.90476230108401,-6.90476230108401m-6.90476230108401,10.7201579561085l6.90476230108401,-6.90476131760737m-6.90476230108401,10.7201569726319l5.00000015133992,-4.99999916786328m0.0256038308262843,-0.0256048143029235l1.87915831891781,-1.87915733544117m-6.90476230108401,10.7201579561085l5.00000015133992,-5.00000015133992m-5.00000015133992,8.81539580636443l6.90476230108401,-6.90476230108401m-6.90476230108401,10.7201579561085l6.90476230108401,-6.90476230108401m-6.90476230108401,10.7201579561085l6.90476230108401,-6.90476131760737m-6.90476230108401,10.7201569726319l6.90476230108401,-6.90476131760737m-6.90476230108401,10.7201579561085l6.90476230108401,-6.90476230108401m-6.90476230108401,10.7201579561085l6.90476230108401,-6.90476230108401m-6.90476230108401,10.7201579561085l6.90476230108401,-6.90476230108401m-6.90476230108401,10.7201579561085l6.90476230108401,-6.90476131760737m-4.21513563590829,8.03053030745617l4.21513563590829,-4.21513465243165m-0.399739980883775,4.21513465243165l0.399739980883775,-0.399738997407136" />
  <path d="M708.323541971074,267.568493967675h0.301713913819619m-0.301713913819619,3.65714246204921h0.301713913819619m-0.301713913819619,5.48571467655046h0.301713913819619m-0.301713913819619,10.9714283696243h0.301713913819619m-0.301713913819619,3.65714246204921h0.301713913819619m-0.301713913819619,5.48571467655046h0.301713913819619m-0.301713913819619,10.9714283696243h0.301713913819619m-0.301713913819619,3.65714344552585h0.301713913819619m-0.301713913819619,5.48571369307382h0.301713913819619m-0.101335465955239,-11.4532296412872l-0.150857448648129,-0.261292040469727m0.85066008607422,-13.1551851393446l-0.00201711058710567,-0.00349330902262279m-0.339107662597256,-7.90163684259245l-0.15085646517149,-0.261292040469727m0.198911100718617,25.2541812775909l-0.150857448648129,0.261292040469727m0.216499596934998,-15.0035596559772l-0.15085646517149,0.261292040469727m-0.51844659471812,-2.75916731486058l-0.0556500256320695,0.0963885784598014m0.300632089516442,-4.17785301999089l-0.150857448648129,0.261292040469727m0.461481660819371,-19.0850250809849l-0.15085646517149,0.261292040469727" />
  <path d="M654.720005340278,227.279972182251h79.9798922911193m-79.9798922911193,2.69789180285199h79.9798922911193m-79.9798922911193,2.69789278632863h79.9798922911193m-79.9798922911193,2.69789180285199h79.9798922911193m-78.325786865468,0.785324782498798v-9.52380976524381m2.69789180285199,9.52380976524381v-9.52380976524381m2.69789278632863,9.52380976524381v-9.52380976524381m2.69789180285199,9.52380976524381v-9.52380976524381m2.69789180285199,9.52380976524381v-9.52380976524381m2.69789278632863,9.52380976524381v-9.52380976524381m2.69789180285199,9.52380976524381v-9.52380976524381m2.69789278632863,9.52380976524381v-9.52380976524381m2.69789180285199,9.52380976524381v-9.52380976524381m2.69789278632863,9.52380976524381v-9.52380976524381m2.69789180285199,9.52380976524381v-9.52380976524381m2.69789278632863,9.52380976524381v-9.52380976524381m2.69789180285199,9.52380976524381v-9.52380976524381m2.69789278632863,9.52380976524381v-9.52380976524381m2.69789180285199,9.52380976524381v-9.52380976524381m2.69789278632863,9.52380976524381v-9.52380976524381m2.69789180285199,9.52380976524381v-9.52380976524381m2.69789278632863,9.52380976524381v-9.52380976524381m2.69789180285199,9.52380976524381v-9.52380976524381m2.69789278632863,9.52380976524381v-9.52380976524381m2.69789180285199,9.52380976524381v-9.52380976524381m2.69789278632863,9.52380976524381v-9.52380976524381m2.69789180285199,9.52380976524381v-9.52380976524381m2.69789278632863,9.52380976524381v-9.52380976524381m2.69789180285199,9.52380976524381v-9.52380976524381m2.69789180285199,9.52380976524381v-9.52380976524381m2.69789278632863,9.52380976524381v-9.52380976524381m2.69789180285199,9.52380976524381v-9.52380976524381m2.69789278632863,9.52380976524381v-9.52380976524381m2.69789180285199,9.52380976524381v-9.52380976524381" />
  <path d="M708.271299691997,267.111342554498h-53.5513218890649" />
  <path d="M708.271299691997,267.111342554498v50.6486653325375m26.4285704020544,0v-35.4105720684913m0,0h-1.90476214974409m0,0v-5.07936573265091m0,0h1.90476214974409m0,0v-10.1587294983485" />
  <path d="M734.699913367024,267.111342554498h-6.90476230108401m0,50.6486653325375v-50.6486653325375m0,0h-5.71428546575563m0,50.6486653325375v-50.6486653325375m0,0h-1.42857161230807m0,50.6486653325375v-50.6486653325375m0,0h-11.4285709315113m0,50.6486653325375v-50.6486653325375m0,0h-0.952381074872045" />
  <path d="M654.720005340278,267.111342554498h53.5513218890649m26.4285704020544,0v-40.9523803186381m0,0h-79.9798922911193" />
  <path d="M654.720005340278,226.635157690679h79.9798922911193m-79.9798922911193,9.52380976524381h79.9798922911193m-79.9798922911193,0.476190537436023h79.9798922911193" />
  <path d="M734.699913367024,525.361765152478v-1.42857062883143h-82.5398898509051v1.42857062883143z" />
  <path d="M734.699913367024,523.93319058974v-58.3331977400618h-6.90476230108401v58.3331977400618z" />
  <path d="M709.223682733822,523.93319058974v-58.3331977400618h-0.952381074872045v58.3331977400618z" />
  <path d="M652.521423643698,525.361765152478l-0.361445367504584,-0.361445367504584m4.17684200600574,0.361445367504584l-1.42857161230807,-1.42857062883143m5.24396726733258,1.42857062883143l-1.42857161230807,-1.42857062883143m5.24396726733258,1.42857062883143l-1.42857161230807,-1.42857062883143m5.24396726733258,1.42857062883143l-1.42857161230807,-1.42857062883143m5.24396726733258,1.42857062883143l-1.42857161230807,-1.42857062883143m5.24396726733258,1.42857062883143l-1.42857062883143,-1.42857062883143m5.24396726733258,1.42857062883143l-1.42857161230807,-1.42857062883143m5.24396726733258,1.42857062883143l-1.42857161230807,-1.42857062883143m5.24396726733258,1.42857062883143l-1.42857161230807,-1.42857062883143m5.24396726733258,1.42857062883143l-1.42857161230807,-1.42857062883143m5.24396726733258,1.42857062883143l-1.42857062883143,-1.42857062883143m5.24396726733258,1.42857062883143l-1.42857161230807,-1.42857062883143m5.24396726733258,1.42857062883143l-1.42857161230807,-1.42857062883143m5.24396726733258,1.42857062883143l-1.42857161230807,-1.42857062883143m5.24396726733258,1.42857062883143l-1.42857161230807,-1.42857062883143m5.24396726733258,1.42857062883143l-1.42857062883143,-1.42857062883143m5.24396726733258,1.42857062883143l-1.42857161230807,-1.42857062883143m5.24396726733258,1.42857062883143l-1.42857161230807,-1.42857062883143m5.24396726733258,1.42857062883143l-1.42857161230807,-1.42857062883143m5.24396726733258,1.42857062883143l-1.42857161230807,-1.42857062883143m5.24396726733258,1.42857062883143l-1.42857161230807,-1.42857062883143" />
  <path d="M727.795120578164,466.977336147324l1.37733247940304,-1.37733247940304m-1.37733247940304,5.19272813442756l5.1927291179042,-5.19272813442756m-5.1927291179042,9.00812378945207l6.90476230108401,-6.90476131760737m-6.90476230108401,10.7201579561085l6.90476230108401,-6.90476230108401m-6.90476230108401,10.7201579561085l6.90476230108401,-6.90476230108401m-6.90476230108401,10.7201579561085l6.90476230108401,-6.90476230108401m-6.90476230108401,10.7201579561085l6.90476230108401,-6.90476230108401m-6.90476230108401,10.7201579561085l6.90476230108401,-6.90476131760737m-6.90476230108401,10.7201569726319l6.90476230108401,-6.90476131760737m-6.90476230108401,10.7201579561085l6.90476230108401,-6.90476230108401m-6.90476230108401,10.7201579561085l6.90476230108401,-6.90476230108401m-6.90476230108401,10.7201579561085l6.90476230108401,-6.90476230108401m-6.90476230108401,10.7201579561085l6.90476230108401,-6.90476131760737m-6.90476230108401,10.7201569726319l6.90476230108401,-6.90476131760737m-6.90476230108401,10.7201579561085l6.90476230108401,-6.90476230108401m-6.62968880246845,10.4450854409696l6.62968880246845,-6.62968978594508m-2.81429314744393,6.62968978594508l2.81429314744393,-2.81429413092057m-3.4837053732405,2.81429413092057l-3.42105692784351,-3.42105791132015m6.90476230108401,3.08936664605949l-6.90476230108401,-6.90476230108401m6.90476230108401,3.08936664605949l-6.90476230108401,-6.90476230108401m6.90476230108401,3.08936566258285l-6.90476230108401,-6.90476131760737m6.90476230108401,3.08936566258285l-6.90476230108401,-6.90476131760737m6.90476230108401,3.08936566258285l-6.90476230108401,-6.90476230108401m6.90476230108401,3.08936664605949l-6.90476230108401,-6.90476230108401m6.90476230108401,3.08936664605949l-6.90476230108401,-6.90476230108401m6.90476230108401,3.08936566258285l-6.90476230108401,-6.90476131760737m6.90476230108401,3.08936566258285l-6.90476230108401,-6.90476131760737m6.90476230108401,3.08936566258285l-6.90476230108401,-6.90476230108401m6.90476230108401,3.08936664605949l-6.90476230108401,-6.90476230108401m6.90476230108401,3.08936664605949l-6.90476230108401,-6.90476230108401m6.90476230108401,3.08936566258285l-6.90476230108401,-6.90476131760737m6.90476230108401,3.08936566258285l-6.90476230108401,-6.90476131760737m6.90476230108401,3.08936566258285l-4.58596435402798,-4.58596435402798m4.58596435402798,0.770568699003462l-0.770568699003462,-0.770568699003462" />
  <path d="M708.323541971074,465.876062610129h0.301713913819619m-0.301713913819619,10.9714293531009h0.301713913819619m-0.301713913819619,3.65714246204921h0.301713913819619m-0.301713913819619,5.48571467655046h0.301713913819619m-0.301713913819619,10.9714283696243h0.301713913819619m-0.301713913819619,3.65714246204921h0.301713913819619m-0.301713913819619,5.48571467655046h0.301713913819619m-0.301713913819619,10.9714283696243h0.301713913819619m-0.301713913819619,3.65714246204921h0.301713913819619m0.196413070054917,-18.2518000687714l-0.150857448648129,-0.261292040469727m-0.339106679120616,-7.90163684259245l-0.0603628456873646,-0.104551434565592m0.909005821174479,-13.0541270138017l-0.150857448648129,-0.261292040469727m-0.462229103065203,39.9964488930984l-0.150857448648129,0.261293023946366m0.807319254059027,-12.3697462735557l-0.072373062405909,0.12535294896241m0.072373062405909,-14.7539247641125l-0.00672993064240084,0.0116571486050529m-0.0284824669493746,-10.9220961979228l-0.150857448648129,0.261292040469727m-0.51844659471812,-2.75916731486058l-0.15085646517149,0.261292040469727m0.216499596934998,-15.0035596559772l-0.150857448648129,0.261292040469727" />
  <path d="M652.160007780492,544.409363046479h82.5398898509051m0,0v-20.4761901593191m0,0h-82.5398898509051" />
  <path d="M734.699913367024,526.790339715216h-82.5398898509051m82.5398898509051,-1.42857161230807h-82.5398898509051" />
  <path d="M652.160007780492,523.93319058974h56.1113194488507" />
  <path d="M708.271299691997,465.599996783584v58.3331977400618m0,0h19.523809084447m0,0h6.90476230108401m0,0v-58.3331977400618" />
  <path d="M727.795120578164,523.93319058974v-58.3331977400618m-5.71428546575563,58.3331977400618v-58.3331977400618m-1.42857161230807,58.3331977400618v-58.3331977400618m-11.4285709315113,58.3331977400618v-58.3331977400618" />
  <path d="M245.244581336735,320.640009075701h5.13022721052646v-12.4598966596927h-5.71428546575563v-15.2380952309994h5.71428546575563v-30.4761904619989h-20.7142839528221v58.1741813692144h14.9999994705431z" />
  <path d="M173.573319992783,320.640009075701h0.372911721641622v-58.1741813692144h-2.85714322461614v58.1741813692144z" />
  <path d="M250.374804613355,169.608697493378v-28.5714283122548h-119.814818914893v28.5714283122548z" />
  <path d="M229.660520660533,266.049471025378l3.58364823627456,-3.58364921975119m-3.58364823627456,7.39904487477571l7.39904389129907,-7.39904487477571m-7.39904389129907,11.2144405298002l11.2144395463236,-11.2144405298002m-11.2144395463236,15.0298361848247l15.0298361848247,-15.0298361848247m-15.0298361848247,18.8452338068025l18.8452318398493,-18.8452338068025m-18.8452318398493,22.6606274948738l20.7142839528221,-20.7142859197754m-20.7142839528221,24.5296815747999l20.7142839528221,-20.7142859197754m-20.7142839528221,24.5296815747999l20.7142839528221,-20.7142859197754m-20.7142839528221,24.5296815747999l20.7142839528221,-20.7142839528221m-20.7142839528221,24.5296815747999l20.7142839528221,-20.7142859197754m-20.7142839528221,24.5296815747999l20.7142839528221,-20.7142859197754m-20.7142839528221,24.5296815747999l14.9999994705431,-15.0000004540198m0.0768124759554921,-0.0768124759554921l5.63747298980014,-5.63747298980014m-20.7142839528221,24.5296815747999l14.9999994705431,-14.9999994705431m3.89220813098001,-3.89220911445665l1.82207733477563,-1.82207733477563m-20.7142839528221,24.5296815747999l14.9999994705431,-14.9999994705431m-14.9999994705431,18.8153951255676l14.9999994705431,-15.0000004540198m-12.359595811162,16.1749914661865l12.4598966596927,-12.4598966596927m-8.64450100466819,12.4598966596927l12.4598966596927,-12.4598966596927m-8.64450100466819,12.4598966596927l10.4430899668686,-10.4430899668686m-6.6276933283674,10.4430899668686l6.6276933283674,-6.62769431184404m-2.81229767334289,6.62769431184404l2.81229767334289,-2.81229767334289" />
  <path d="M173.074264606961,265.665836457939h0.301713913819619m-2.13028514484423,1.82857123102461h0.301713913819619m1.52685731720499,5.48571369307382h0.301713913819619m-2.13028514484423,5.48571467655046h0.301713913819619m1.52685731720499,1.82857123102461h0.301713913819619m-2.13028514484423,1.82857123102461h0.301713913819619m1.52685731720499,3.65714344552585h0.301713913819619m-2.13028514484423,1.82857123102461h0.301713913819619m1.52685731720499,5.48571467655046h0.301713913819619m-2.13028514484423,5.48571369307382h0.301713913819619m1.52685731720499,1.82857123102461h0.301713913819619m-2.13028514484423,1.82857221450125h0.301713913819619m1.52685731720499,3.65714246204921h0.301713913819619m-2.13028514484423,1.82857123102461h0.301713913819619m1.52685731720499,5.48571467655046h0.301713913819619m-2.13028514484423,5.48571369307382h0.301713913819619m1.52685731720499,1.82857221450125h0.301713913819619m-0.0287932455673782,-2.14517203073258l-0.15085646517149,-0.261293023946366m-0.0941255987128828,-3.82017141758472l-0.15085646517149,-0.261293023946366m0.82016050853774,-2.23658225044449l-0.150857448648129,-0.261292040469727m-1.92269584626085,-6.98735073534183l-0.150857448648129,-0.261292040469727m2.3991401206698,-3.15885418800584l-0.146246910163316,-0.25330719363564m-2.5919998896271,-4.48947546095097l-0.118896424825721,-0.205933123922876m1.45750352808158,-4.78981742485884l-0.150857448648129,-0.261292040469727m-0.339106679120616,-7.90163585911581l-0.150857448648129,-0.261293023946366m1.48946455190399,-4.73445752483534l-0.150857448648129,-0.261292040469727m-0.339106679120616,-7.90163684259245l-0.150857448648129,-0.261292040469727m-1.00841072248687,-5.40376156820159l-0.150857448648129,-0.261292040469727m1.5551076836675,51.3067803621789l-0.150857448648129,0.261292040469727m-0.51844659471812,-2.75916731486058l-0.150857448648129,0.261293023946366m-0.518445611241481,-2.75916731486058l-0.150857448648129,0.261292040469727m2.22441074355711,-7.50993481628128l-0.150857448648129,0.261292040469727m-1.18774965460773,-5.25704258925144l-0.150857448648129,0.261292040469727m-0.51844659471812,-2.75916731486058l-0.150857448648129,0.261292040469727m2.21980118854893,-7.50194996944719l-0.146246910163316,0.25330719363564m-1.67771476585312,2.90588629381074l-0.150857448648129,0.261293023946366m-0.273463547357108,-6.84063175639167l-0.150857448648129,0.261292040469727m2.22441074355711,-7.50993481628128l-0.150857448648129,0.261292040469727m-0.51844659471812,-2.75916731486058l-0.15085646517149,0.261292040469727m-0.51844659471812,-2.75916731486058l-0.150857448648129,0.261292040469727m-1.18774965460773,-5.2570416057748l-0.00519964099172486,0.00900471210899051" />
  <path d="M130.560001434088,142.971696920214h119.814803179267m-119.814803179267,2.69789180285199h119.814803179267m-119.814803179267,2.69789278632863h119.814803179267m-119.814803179267,2.69789180285199h119.814803179267m-119.814803179267,2.69789278632863h119.814803179267m-119.814803179267,2.69789180285199h119.814803179267m-119.814803179267,2.69789278632863h119.814803179267m-119.814803179267,2.69789180285199h119.814803179267m-119.814803179267,2.69789278632863h119.814803179267m-119.814803179267,2.69789180285199h119.814803179267m-118.967990453806,2.35597238054311v-28.5714283122548m2.69789180285199,28.5714283122548v-28.5714283122548m2.69789278632863,28.5714283122548v-28.5714283122548m2.69789180285199,28.5714283122548v-28.5714283122548m2.69789278632863,28.5714283122548v-28.5714283122548m2.69789180285199,28.5714283122548v-28.5714283122548m2.69789278632863,28.5714283122548v-28.5714283122548m2.69789180285199,28.5714283122548v-28.5714283122548m2.69789278632863,28.5714283122548v-28.5714283122548m2.69789180285199,28.5714283122548v-28.5714283122548m2.69789278632863,28.5714283122548v-28.5714283122548m2.69789180285199,28.5714283122548v-28.5714283122548m2.69789278632863,28.5714283122548v-28.5714283122548m2.69789180285199,28.5714283122548v-28.5714283122548m2.69789278632863,28.5714283122548v-28.5714283122548m2.69789180285199,28.5714283122548v-28.5714283122548m2.69789278632863,28.5714283122548v-28.5714283122548m2.69789180285199,28.5714283122548v-28.5714283122548m2.69789278632863,28.5714283122548v-28.5714283122548m2.69789180285199,28.5714283122548v-28.5714283122548m2.69789180285199,28.5714283122548v-28.5714283122548m2.69789278632863,28.5714283122548v-28.5714283122548m2.69789180285199,28.5714283122548v-28.5714283122548m2.69789278632863,28.5714283122548v-28.5714283122548m2.69789180285199,28.5714283122548v-28.5714283122548m2.69789278632863,28.5714283122548v-28.5714283122548m2.69789180285199,28.5714283122548v-28.5714283122548m2.69789278632863,28.5714283122548v-28.5714283122548m2.69789180285199,28.5714283122548v-28.5714283122548m2.69789278632863,28.5714283122548v-28.5714283122548m2.69789180285199,28.5714283122548v-28.5714283122548m2.69789278632863,28.5714283122548v-28.5714283122548m2.69789180285199,28.5714283122548v-28.5714283122548m2.69789278632863,28.5714283122548v-28.5714283122548m2.69789180285199,28.5714283122548v-28.5714283122548m2.69789278632863,28.5714283122548v-28.5714283122548m2.69789180285199,28.5714283122548v-28.5714283122548m2.69789278632863,28.5714283122548v-28.5714283122548m2.69789180285199,28.5714283122548v-28.5714283122548m2.69789278632863,28.5714283122548v-28.5714283122548m2.69789180285199,28.5714283122548v-28.5714283122548m2.69789180285199,28.5714283122548v-28.5714283122548m2.69789278632863,28.5714283122548v-28.5714283122548m2.69789180285199,28.5714283122548v-28.5714283122548m2.69789278632863,28.5714283122548v-28.5714283122548" />
  <path d="M171.089089473285,262.465839508206h-40.5291077087303" />
  <path d="M171.089089473285,262.465839508206v58.1741813692144m79.2857151400697,0v-12.4598966596927m0,0h-5.71428546575563m0,0v-15.2380952309994m0,0h5.71428546575563m0,0v-30.4761904619989" />
  <path d="M250.374804613355,262.465839508206h-20.7142839528221m0,58.1741813692144v-58.1741813692144m0,0h-17.1428573807435m0,58.1741813692144v-58.1741813692144m0,0h-4.2857148369242m0,58.1741813692144v-58.1741813692144m0,0h-34.2857147614871m0,58.1741813692144v-58.1741813692144m0,0h-2.85714322461614" />
  <path d="M130.559977830648,262.465839508206h40.5291077087303m79.2857151400697,0v-122.857144889821m0,0h-119.814818914893" />
  <path d="M130.559977830648,141.037269181124h119.814818914893m-119.814818914893,28.5714283122548h119.814818914893m-119.814818914893,1.42857062883143h119.814818914893" />
  <path d="M256.176671624266,529.374853380665v-4.2857148369242h-116.336694771581v4.2857148369242z" />
  <path d="M256.176671624266,525.089129692451v-48.6091354119634h-20.7142839528221v48.6091354119634z" />
  <path d="M179.748105609672,525.089129692451v-48.6091354119634h-2.85714322461614v48.6091354119634z" />
  <path d="M143.180193967735,529.374853380665l-3.34021121419045,-3.34021219766709m7.1556078526916,3.34021219766709l-4.2857148369242,-4.2857148369242m8.10111049194872,4.2857148369242l-4.2857148369242,-4.2857148369242m8.10111049194872,4.2857148369242l-4.28571385344756,-4.2857148369242m8.10110950847208,4.2857148369242l-4.28571385344756,-4.2857148369242m8.10110950847208,4.2857148369242l-4.28571385344756,-4.2857148369242m8.10111049194872,4.2857148369242l-4.2857148369242,-4.2857148369242m8.10111049194872,4.2857148369242l-4.2857148369242,-4.2857148369242m8.10111049194872,4.2857148369242l-4.2857148369242,-4.2857148369242m8.10111049194872,4.2857148369242l-4.28571385344756,-4.2857148369242m8.10110950847208,4.2857148369242l-4.28571385344756,-4.2857148369242m8.10110950847208,4.2857148369242l-4.28571385344756,-4.2857148369242m8.10111049194872,4.2857148369242l-4.2857148369242,-4.2857148369242m8.10111049194872,4.2857148369242l-4.2857148369242,-4.2857148369242m8.10111049194872,4.2857148369242l-4.28571385344756,-4.2857148369242m8.10110950847208,4.2857148369242l-4.28571385344756,-4.2857148369242m8.10110950847208,4.2857148369242l-4.28571385344756,-4.2857148369242m8.10111049194872,4.2857148369242l-4.2857148369242,-4.2857148369242m8.10111049194872,4.2857148369242l-4.2857148369242,-4.2857148369242m8.10111049194872,4.2857148369242l-4.28571385344756,-4.2857148369242m8.10110950847208,4.2857148369242l-4.28571385344756,-4.2857148369242m8.10110950847208,4.2857148369242l-4.28571385344756,-4.2857148369242m8.10111049194872,4.2857148369242l-4.2857148369242,-4.2857148369242m8.10111049194872,4.2857148369242l-4.2857148369242,-4.2857148369242m8.10111049194872,4.2857148369242l-4.2857148369242,-4.2857148369242m8.10111049194872,4.2857148369242l-4.28571385344756,-4.2857148369242m8.10110950847208,4.2857148369242l-4.28571385344756,-4.2857148369242m8.10110950847208,4.2857148369242l-4.28571385344756,-4.2857148369242m8.10111049194872,4.2857148369242l-4.2857148369242,-4.2857148369242m8.10111049194872,4.2857148369242l-4.2857148369242,-4.2857148369242m6.6357184977437,2.82032284271918l-2.82032185924254,-2.82032284271918" />
  <path d="M235.462387671444,480.129613146246l3.64960509708598,-3.64960608056262m-3.64960509708598,7.46500173558714l7.4650007521105,-7.46500173558714m-7.4650007521105,11.2803973906117l11.280396407135,-11.2803973906117m-11.280396407135,15.0957930456362l15.0957930456362,-15.0957930456362m-15.0957930456362,18.9111896841373l18.9111896841373,-18.9111896841373m-18.9111896841373,22.7265853391618l20.7142839528221,-20.7142859197754m-20.7142839528221,24.5296815747999l20.7142839528221,-20.7142859197754m-20.7142839528221,24.5296815747999l20.7142839528221,-20.7142859197754m-20.7142839528221,24.5296815747999l20.7142839528221,-20.7142839528221m-20.7142839528221,24.5296815747999l20.7142839528221,-20.7142859197754m-20.7142839528221,24.5296815747999l20.7142839528221,-20.7142859197754m-20.7142839528221,24.5296815747999l20.7142839528221,-20.7142859197754m-19.8890664074053,23.7044620624299l19.8890664074053,-19.8890683743586m-16.0736707523808,19.8890683743586l16.0736707523808,-16.0736707523808m-12.2582750973563,16.0736707523808l12.2582750973563,-12.2582750973563m-8.44287944233179,12.2582750973563l8.44287944233179,-8.44287944233179m-4.62748378730728,8.44287944233179l4.62748378730728,-4.62748378730728m-0.81208813228276,4.62748378730728l0.81208813228276,-0.81208813228276m-18.0819064462939,0.81208813228276l-2.6323794734815,-2.6323794734815m6.44777512850602,2.6323794734815l-6.44777512850602,-6.44777512850602m10.2631707835305,6.44777512850602l-10.2631707835305,-10.2631707835305m14.0785664385551,10.2631707835305l-14.0785664385551,-14.0785664385551m17.8939640605328,14.0785664385551l-17.8939640605328,-17.8939640605328m20.7142839528221,16.8988902647509l-20.7142839528221,-20.7142859197754m20.7142839528221,16.8988902647509l-20.7142839528221,-20.7142859197754m20.7142839528221,16.8988902647509l-20.7142839528221,-20.7142859197754m20.7142839528221,16.8988902647509l-20.7142839528221,-20.7142839528221m20.7142839528221,16.8988902647509l-20.7142839528221,-20.7142859197754m20.7142839528221,16.8988902647509l-20.7142839528221,-20.7142859197754m20.7142839528221,16.8988902647509l-20.7142839528221,-20.7142859197754m20.7142839528221,16.8988902647509l-20.7142839528221,-20.7142859197754m20.7142839528221,16.8988902647509l-17.0908963759853,-17.0908963759853m17.0908963759853,13.2755017044374l-13.2755007209608,-13.2755017044374m13.2755007209608,9.46010604941291l-9.46010506593627,-9.46010604941291m9.46010506593627,5.6447103943884l-5.64470941091176,-5.6447103943884m5.64470941091176,1.82931473936388l-1.82931375588724,-1.82931473936388" />
  <path d="M177.047557436418,478.917718156668h0.301713913819619m1.52685731720499,1.82857123102461h0.301713913819619m-2.13028514484423,1.82857123102461h0.301713913819619m1.52685731720499,3.65714344552585h0.301713913819619m-2.13028514484423,1.82857123102461h0.301713913819619m1.52685731720499,5.48571467655046h0.301713913819619m-2.13028514484423,5.48571369307382h0.301713913819619m1.52685731720499,1.82857123102461h0.301713913819619m-2.13028514484423,1.82857221450125h0.301713913819619m1.52685731720499,3.65714246204921h0.301713913819619m-2.13028514484423,1.82857123102461h0.301713913819619m1.52685731720499,5.48571467655046h0.301713913819619m-2.13028514484423,5.48571369307382h0.301713913819619m1.52685731720499,1.82857221450125h0.301713913819619m-2.13028514484423,1.82857123102461h0.301713913819619m0.0509883463620154,-1.51702255081247l-0.15085646517149,-0.261292040469727m2.49869746086127,0.670729101016526l-0.000823169947053851,-0.00142505765027602m-1.67771378237648,-2.90588727728738l-0.150857448648129,-0.261292040469727m0.82016050853774,-2.23658225044449l-0.15085646517149,-0.261292040469727m-0.0941255987128828,-3.82017240106136l-0.15085646517149,-0.261292040469727m-0.0941255987128828,-3.82017240106136l-0.15085646517149,-0.261292040469727m0.82016050853774,-2.23658323392113l-0.150857448648129,-0.261292040469727m0.82016050853774,-2.23658323392113l-0.15085646517149,-0.261292040469727m-0.0941255987128828,-3.82017141758472l-0.15085646517149,-0.261293023946366m-0.0941255987128828,-3.82017141758472l-0.15085646517149,-0.261293023946366m0.801411509887041,-2.26905664907259l-0.132108449997431,-0.228817641841628m-1.92269584626085,-6.98735073534183l-0.150857448648129,-0.261292040469727m-0.339107662597256,-7.90163684259245l-0.15085646517149,-0.261292040469727m2.48916855570356,47.2253169041245l-0.15085646517149,0.261292040469727m-0.51844659471812,-2.75916731486058l-0.150857448648129,0.261292040469727m-1.18774965460773,-5.2570416057748l-0.150857448648129,0.261292040469727m2.22441074355711,-7.50993481628128l-0.150857448648129,0.261292040469727m-0.51844659471812,-2.75916731486058l-0.15085646517149,0.261292040469727m-1.67771476585312,2.90588629381074l-0.150857448648129,0.261292040469727m2.22441074355711,-7.50993481628128l-0.15085646517149,0.261292040469727m-0.273464530833747,-6.84063175639167l-0.150857448648129,0.261292040469727m-0.51844659471812,-2.75916633138394l-0.15085646517149,0.261292040469727m-0.51844659471812,-2.75916731486058l-0.150857448648129,0.261292040469727m2.22441074355711,-7.50993481628128l-0.150857448648129,0.261292040469727m-1.18774965460773,-5.25704258925144l-0.150857448648129,0.261292040469727m-0.573492765693689,-2.66382318859167l-0.0958102941959213,0.16594889767745" />
  <path d="M139.839976852685,586.517710005174h116.336694771581m0,0v-61.4285724449105m0,0h-116.336694771581" />
  <path d="M256.176671624266,533.660545597626h-116.336694771581m116.336694771581,-4.28571385344756h-116.336694771581" />
  <path d="M139.839976852685,525.089129692451h37.050979631511" />
  <path d="M176.890956484196,476.479986412674v48.6091354119634m0,0h58.5714311872476m0,0h20.7142839528221m0,0v-48.6091354119634" />
  <path d="M235.462387671444,525.089129692451v-48.6091354119634m-17.1428573807435,48.6091354119634v-48.6091354119634m-4.2857148369242,48.6091354119634v-48.6091354119634m-34.2857147614871,48.6091354119634v-48.6091354119634" />
  <path d="M480.989470705851,299.200029512495h9.07047719185728v-38.5346170843274h-2.8571422411395v-7.61904761549972h2.8571422411395v-60.9523809239978h-2.8571422411395v-7.61904761549972h2.8571422411395v-32.1549457461363h-10.3571429598877v146.880033084601z" />
  <path d="M451.845643253925,299.200029512495v-146.880033084601h-1.42857062883143l0.155913502050523,146.880033084601z" />
  <path d="M479.702800020437,152.898217749269l0.578236073524801,-0.578236073524801m-0.578236073524801,4.39363172854932l4.39363172854932,-4.39363172854932m-4.39363172854932,8.20902738357383l8.20902738357383,-8.20902738357383m-8.20902738357383,12.024424022075l10.3571429598877,-10.3571429598877m-10.3571429598877,14.1725386149122l10.3571429598877,-10.3571429598877m-10.3571429598877,14.1725386149122l10.3571429598877,-10.3571429598877m-10.3571429598877,14.1725386149122l10.3571429598877,-10.3571429598877m-10.3571429598877,14.1725386149122l10.3571429598877,-10.3571429598877m-10.3571429598877,14.1725395983888l10.3571429598877,-10.3571429598877m-10.3571429598877,14.1725386149122l10.3571429598877,-10.3571429598877m-10.3571429598877,14.1725386149122l10.3571429598877,-10.3571429598877m-10.3571429598877,14.1725386149122l7.5000007187482,-7.49999973527156m-7.5000007187482,11.3153953902961l7.5000007187482,-7.49999973527156m-7.5000007187482,11.3153953902961l10.3571429598877,-10.3571419764111m-10.3571429598877,14.1725386149122l10.3571429598877,-10.3571429598877m-10.3571429598877,14.1725386149122l10.3571429598877,-10.3571429598877m-10.3571429598877,14.1725386149122l10.3571429598877,-10.3571429598877m-10.3571429598877,14.1725386149122l10.3571429598877,-10.3571429598877m-10.3571429598877,14.1725386149122l10.3571429598877,-10.3571419764111m-10.3571429598877,14.1725386149122l10.3571429598877,-10.3571429598877m-10.3571429598877,14.1725386149122l10.3571429598877,-10.3571429598877m-10.3571429598877,14.1725386149122l10.3571429598877,-10.3571429598877m-10.3571429598877,14.1725386149122l10.3571429598877,-10.3571429598877m-10.3571429598877,14.1725386149122l10.3571429598877,-10.3571429598877m-10.3571429598877,14.1725395983888l10.3571429598877,-10.3571429598877m-10.3571429598877,14.1725386149122l10.3571429598877,-10.3571429598877m-10.3571429598877,14.1725386149122l10.3571429598877,-10.3571429598877m-10.3571429598877,14.1725386149122l10.3571429598877,-10.3571429598877m-10.3571429598877,14.1725386149122l10.3571429598877,-10.3571429598877m-10.3571429598877,14.1725395983888l7.5000007187482,-7.5000007187482m-7.5000007187482,11.3153963737727l7.5000007187482,-7.5000007187482m-7.5000007187482,11.3153963737727l10.3571429598877,-10.3571429598877m-10.3571429598877,14.1725386149122l10.3571429598877,-10.3571429598877m-10.3571429598877,14.1725386149122l10.3571429598877,-10.3571429598877m-10.3571429598877,14.1725386149122l10.3571429598877,-10.3571419764111m-10.3571429598877,14.1725386149122l10.3571429598877,-10.3571429598877m-10.3571429598877,14.1725386149122l10.3571429598877,-10.3571429598877m-10.3571429598877,14.1725386149122l10.3571429598877,-10.3571429598877m-10.3571429598877,14.1725386149122l10.3571429598877,-10.3571429598877m-7.85850844153134,11.6739040965559l7.85850844153134,-7.8585074580547m-4.04311278650682,7.8585074580547l4.04311278650682,-4.04311180303018m-0.227716148005666,4.04311180303018l0.227716148005666,-0.227716148005666" />
  <path d="M451.6198055463,159.389509752108h0.225847542391088m-0.225847542391088,7.31428590757506h0.225847542391088m-0.225847542391088,5.48571369307382h0.225847542391088m-0.225847542391088,7.31428590757506h0.225847542391088m-0.225847542391088,7.31428590757506h0.225847542391088m-0.225847542391088,5.48571467655046h0.225847542391088m-0.225847542391088,7.31428492409842h0.225847542391088m-0.225847542391088,7.31428590757506h0.225847542391088m-0.225847542391088,5.48571467655046h0.225847542391088m-0.225847542391088,7.31428590757506h0.225847542391088m-0.225847542391088,7.31428492409842h0.225847542391088m-0.225847542391088,5.48571467655046h0.225847542391088m-0.225847542391088,7.31428590757506h0.225847542391088m-0.225847542391088,7.31428590757506h0.225847542391088m-0.225847542391088,5.48571369307382h0.225847542391088m-0.225847542391088,7.31428590757506h0.225847542391088m-0.225847542391088,7.31428590757506h0.225847542391088m-0.225847542391088,5.48571369307382h0.225847542391088m-0.225847542391088,7.31428590757506h0.225847542391088m-0.225847542391088,7.31428590757506h0.225847542391088m-0.225847542391088,5.48571467655046h0.225847542391088m-1.08391615798879,-12.4636230526788l-0.150857448648129,-0.261293023946366m0.999500424135244,-12.8973864078975l-0.150857448648129,-0.261292040469727m-0.339106679120616,-7.90163684259245l-0.150857448648129,-0.261292040469727m0.876094758918553,-13.1111303032893l-0.0274517834314386,-0.0475481450779122m-1.00841072248687,-5.40376156820159l-0.150857448648129,-0.261292040469727m-0.0941246152362435,-3.82017240106136l-0.147726059028751,-0.255869150280892m0.572048038510628,-6.32346958216441l-0.150857448648129,-0.261293023946366m0.82016050853774,-2.23658225044449l-0.150857448648129,-0.261292040469727m-0.0941246152362435,-3.82017240106136l-0.150857448648129,-0.261292040469727m-0.0941246152362435,-3.82017240106136l-0.150857448648129,-0.261292040469727m0.82016050853774,-2.23658323392113l-0.15085646517149,-0.261292040469727m-1.07405385425037,-20.1460291837091l-0.15085646517149,-0.261292040469727m0.999499440658604,-12.8973864078975l-0.15085646517149,-0.261293023946366m-0.339107662597256,-7.90163585911581l-0.150857448648129,-0.261292040469727m0.999500424135244,-12.8973864078975l-0.150857448648129,-0.261293023946366m-1.00841072248687,-5.40376058472496l-0.15085646517149,-0.261293023946366m1.32771313252287,140.283013409135l-0.15085646517149,0.261292040469727m-0.51844659471812,-2.75916731486058l-0.150857448648129,0.261292040469727m-0.51844659471812,-2.75916731486058l-0.0820829272652431,0.142173349923535m0.817030102395001,-12.3865656910402l-0.150857448648129,0.261292040469727m-0.51844659471812,-2.75916731486058l-0.147726059028751,0.255870133757531m0.392708122913124,-4.33733457528862l-0.150857448648129,0.261292040469727m1.13078570418562,-16.5871498065941l-0.15085646517149,0.261293023946366m-0.51844659471812,-2.75916731486058l-0.150857448648129,0.261292040469727m0.876094758918553,-12.4888698814851l-0.141148567265434,0.244476556891797m-0.51844659471812,-2.75916731486058l-0.15085646517149,0.261292040469727m0.395838529055863,-4.34275648200081l-0.15085646517149,0.261293023946366m-0.273464530833747,-6.84063175639167l-0.150857448648129,0.261292040469727m0.885803640301248,-12.505685365063l-0.150857448648129,0.261292040469727m0.216500580411637,-15.0035596559772l-0.150857448648129,0.261292040469727m-0.0284824669493746,-10.9220961979228l-0.15085646517149,0.261292040469727m-0.51844659471812,-2.75916731486058l-0.150857448648129,0.261293023946366m0.216499596934998,-15.0035606394538l-0.15085646517149,0.261292040469727m-0.273464530833747,-6.84063175639167l-0.150857448648129,0.261293023946366" />
  <path d="M450.417068691187,152.319980692267v146.880033084601m39.6428575700348,0v-38.5346170843274m0,0h-2.8571422411395m0,0v-7.61904761549972m0,0h2.8571422411395m0,0v-60.9523809239978m0,0h-2.8571422411395m0,0v-7.61904761549972m0,0h2.8571422411395m0,0v-32.1549457461363" />
  <path d="M479.702800020437,299.200029512495v-146.880033084601m-8.57142869037177,146.880033084601v-146.880033084601m-2.14285692672378,146.880033084601v-146.880033084601m-17.1428573807435,146.880033084601v-146.880033084601" />
  <path d="M507.202789542825,263.570763710686v-8.96901977479878m0,0h-17.1428573807435m0,0v8.96901977479878m0,0h17.1428573807435m0,-42.3273829418828v-9.02316999855599m0,0h-17.1428573807435m0,0v9.02316999855599m0,0h17.1428573807435m0,0v0.114152133517969m0,0v1.3774691826559m0,0v1.92845705241359m0,0v2.46376240368176m0,0v2.98338425298379m0,0v3.50300610228582m0,0v4.02262795158784m0,0v4.25107383925983m0,0v3.66976636819065m0,0v3.08845889712146m0,0v2.50715044257564m0,0v1.93943461866092m0,0v1.38531142537729m0,0v0.124308496771524m-17.1428573807435,-33.2442090666127h17.1428573807435m-17.1428573807435,1.3774691826559h17.1428573807435m-17.1428573807435,1.92845705241359h17.1428573807435m-17.1428573807435,2.46376240368176h17.1428573807435m-17.1428573807435,2.98338425298379h17.1428573807435m-17.1428573807435,3.50300610228582h17.1428573807435m-17.1428573807435,4.02262795158784h17.1428573807435m-17.1428573807435,4.25107383925983h17.1428573807435m-17.1428573807435,3.66976636819065h17.1428573807435m-17.1428573807435,3.08845889712146h17.1428573807435m-17.1428573807435,2.50715044257564h17.1428573807435m-17.1428573807435,1.93943461866092h17.1428573807435m-17.1428573807435,1.38531142537729h17.1428573807435m-17.1428573807435,0.124308496771524v-0.124308496771524m0,0v-1.38531142537729m0,0v-1.93943461866092m0,0v-2.50715044257564m0,0v-3.08845889712146m0,0v-3.66976636819065m0,0v-4.25107383925983m0,0v-4.02262795158784m0,0v-3.50300610228582m0,0v-2.98338425298379m0,0v-2.46376240368176m0,0v-1.92845705241359m0,0v-1.3774691826559m17.1428573807435,-1.10197475603874v0.37429547327305m0,0v1.12288543634251m0,0v1.75019601068934m0,0v2.25622719631355m0,0.000839889049921133v3.14825821069454m0,0v4.428811671412m0,0v29.7428807754735m0,-51.3892743826794v0.506030202147565m0,0v1.51809158991933m0,0v2.53015199421446m0,0v3.54221338198623m0,-7.02587744920788v50.3186617131898m-17.1428573807435,-51.3892743826794h17.1428573807435m-17.1428573807435,0.506030202147565h17.1428573807435m-17.1428573807435,0v-0.506030202147565m17.1428573807435,-16.1929743365352v5.03521156545505m0,0v12.2283724901399m0,0v8.56487873595435m0,0v27.9529552589883m0,0v6.13509643363538m0,0v3.58403375911714m0,0v2.08685284950158m0,0v1.6435537047887m0,0v1.06642797638961m0,0v0.355475664304325m-17.1428573807435,-68.6528535208911h17.1428573807435m-17.1428573807435,5.03521156545505h17.1428573807435m-17.1428573807435,63.2621702250383h17.1428573807435m-17.1428573807435,0.355475664304325h17.1428573807435m-17.1428573807435,0v-0.355475664304325m0,-4.7968345306799v-3.58403375911714" />
  <path d="M454.365546438082,527.292085893122h80.6744392293852v-2.14285692672378h-80.6744392293852z" />
  <path d="M464.722704150119,525.149239784642v-62.109224825217h-10.3571429598877v62.109224825217z" />
  <path d="M492.579860916631,525.149239784642h1.42857161230807v-62.109224825217h-1.42857161230807z" />
  <path d="M457.085197661577,527.292085893122l-2.14285791020042,-2.14285692672378m5.95825356522494,2.14285692672378l-2.14285692672378,-2.14285692672378m5.9582525817483,2.14285692672378l-2.14285692672378,-2.14285692672378m5.9582525817483,2.14285692672378l-2.14285692672378,-2.14285692672378m5.9582525817483,2.14285692672378l-2.14285692672378,-2.14285692672378m5.95825356522494,2.14285692672378l-2.14285791020042,-2.14285692672378m5.95825356522494,2.14285692672378l-2.14285692672378,-2.14285692672378m5.9582525817483,2.14285692672378l-2.14285692672378,-2.14285692672378m5.9582525817483,2.14285692672378l-2.14285692672378,-2.14285692672378m5.9582525817483,2.14285692672378l-2.14285692672378,-2.14285692672378m5.9582525817483,2.14285692672378l-2.14285692672378,-2.14285692672378m5.95825356522494,2.14285692672378l-2.14285791020042,-2.14285692672378m5.95825356522494,2.14285692672378l-2.14285692672378,-2.14285692672378m5.9582525817483,2.14285692672378l-2.14285692672378,-2.14285692672378m5.9582525817483,2.14285692672378l-2.14285692672378,-2.14285692672378m5.9582525817483,2.14285692672378l-2.14285692672378,-2.14285692672378m5.95825356522494,2.14285692672378l-2.14285791020042,-2.14285692672378m5.95825356522494,2.14285692672378l-2.14285692672378,-2.14285692672378m5.9582525817483,2.14285692672378l-2.14285692672378,-2.14285692672378m5.9582525817483,2.14285692672378l-2.14285692672378,-2.14285692672378m5.9582525817483,2.14285692672378l-2.14285692672378,-2.14285692672378" />
  <path d="M454.365546438082,465.683804728875l2.64379763726322,-2.64379763726322m-2.64379763726322,6.45919329228773l6.45919329228773,-6.45919329228773m-6.45919329228773,10.2745899307889l10.2745889473122,-10.2745899307889m-10.2745889473122,14.0899855858134l10.3571429598877,-10.3571429598877m-10.3571429598877,14.1725386149122l10.3571429598877,-10.3571429598877m-10.3571429598877,14.1725386149122l10.3571429598877,-10.3571429598877m-10.3571429598877,14.1725386149122l10.3571429598877,-10.3571429598877m-10.3571429598877,14.1725395983888l10.3571429598877,-10.3571429598877m-10.3571429598877,14.1725386149122l10.3571429598877,-10.3571429598877m-10.3571429598877,14.1725386149122l10.3571429598877,-10.3571429598877m-10.3571429598877,14.1725386149122l10.3571429598877,-10.3571429598877m-10.3571429598877,14.1725386149122l10.3571429598877,-10.3571429598877m-10.3571429598877,14.1725386149122l10.3571429598877,-10.3571419764111m-10.3571429598877,14.1725386149122l10.3571429598877,-10.3571429598877m-10.3571429598877,14.1725386149122l10.3571429598877,-10.3571429598877m-10.3571429598877,14.1725386149122l10.3571429598877,-10.3571429598877m-8.77623770049598,12.5916343389971l8.77623770049598,-8.77623868397262m-4.96084204547146,8.77623868397262l4.96084204547146,-4.96084204547146m-1.14544639044695,4.96084204547146l1.14544639044695,-1.14544639044695m-9.78035554745251,1.14544639044695l-0.576787412435183,-0.576787412435183m4.39218405093634,0.576787412435183l-4.39218405093634,-4.39218405093634m8.20757970596085,4.39218405093634l-8.20757970596085,-8.20757970596085m10.3571429598877,6.54174730486318l-10.3571429598877,-10.3571429598877m10.3571429598877,6.54174730486318l-10.3571429598877,-10.3571429598877m10.3571429598877,6.54174632138654l-10.3571429598877,-10.3571419764111m10.3571429598877,6.54174632138654l-10.3571429598877,-10.3571429598877m10.3571429598877,6.54174730486318l-10.3571429598877,-10.3571429598877m10.3571429598877,6.54174730486318l-10.3571429598877,-10.3571429598877m10.3571429598877,6.54174730486318l-10.3571429598877,-10.3571429598877m10.3571429598877,6.54174730486318l-10.3571429598877,-10.3571429598877m10.3571429598877,6.54174632138654l-10.3571429598877,-10.3571429598877m10.3571429598877,6.54174730486318l-10.3571429598877,-10.3571429598877m10.3571429598877,6.54174730486318l-10.3571429598877,-10.3571429598877m10.3571429598877,6.54174730486318l-10.3571429598877,-10.3571429598877m10.3571429598877,6.54174730486318l-10.3571429598877,-10.3571429598877m10.3571429598877,6.54174632138654l-10.3571429598877,-10.3571419764111m10.3571429598877,6.54174632138654l-7.0278522702995,-7.0278522702995m7.0278522702995,3.21245661527498l-3.21245563179835,-3.21245661527498" />
  <path d="M493.608184090633,466.406353214014h0.301713913819619m-0.301713913819619,3.65714246204921h0.301713913819619m-0.301713913819619,5.48571467655046h0.301713913819619m-0.301713913819619,10.9714283696243h0.301713913819619m-0.301713913819619,3.65714246204921h0.301713913819619m-0.301713913819619,5.48571467655046h0.301713913819619m-0.301713913819619,10.9714283696243h0.301713913819619m-0.301713913819619,3.65714246204921h0.301713913819619m-0.301713913819619,5.48571467655046h0.301713913819619m-0.672005653694275,2.31382253873806l-0.150857448648129,-0.261292040469727m-0.0941255987128828,-3.82017240106136l-0.15085646517149,-0.261292040469727m-0.0941255987128828,-3.82017240106136l-0.15085646517149,-0.261292040469727m0.82016050853774,-2.23658225044449l-0.150857448648129,-0.261293023946366m0.742033124315568,-2.37190371862236l-0.0727290809493182,-0.12597057229186m-0.0941255987128828,-3.82017240106136l-0.15085646517149,-0.261292040469727m-0.0941255987128828,-3.82017240106136l-0.15085646517149,-0.261292040469727m-0.404749810884125,-22.6439044580999l-0.150857448648129,-0.261292040469727m0.202361136769113,47.181638739622l-0.150857448648129,0.261292040469727m0.885803640301248,-12.505685365063l-0.150857448648129,0.261292040469727m0.216500580411637,-15.0035596559772l-0.150857448648129,0.261292040469727m0.266207456712708,-4.11822778178296l-0.0212253928283348,0.0367633402518757m-0.273464530833747,-6.84063175639167l-0.15085646517149,0.261292040469727m-0.51844659471812,-2.75916731486058l-0.150857448648129,0.261293023946366m0.216499596934998,-15.0035606394538l-0.15085646517149,0.261292040469727" />
  <path d="M454.365546438082,555.863514205377h80.6744392293852m0,-30.7142862224552h-80.6744392293852m0,0v30.7142862224552" />
  <path d="M535.03999353528,529.434963472856h-80.6744392293852m80.6744392293852,-2.14285692672378h-80.6744392293852" />
  <path d="M494.008404008117,525.149239784642v-62.109224825217m-39.6428575700348,0v62.109224825217m0,0h10.3571429598877m0,0h29.2857155936238" />
  <path d="M464.722704150119,463.039999223799v62.109224825217m8.57142869037177,-62.109224825217v62.109224825217m2.14285692672378,-62.109224825217v62.109224825217m17.1428573807435,-62.109224825217v62.109224825217" />
  <path d="M494.008404008117,525.149239784642h41.0315816593504m-41.0315816593504,-62.109224825217v62.109224825217" />
  <path d="M826.68717422834,267.111342554498a2.8571422411395,2.8571422411395,0,1,1,-5.71428448227899,7.24337462880486E-06m5.71428448227899,-7.24337462880486E-06a2.8571422411395,2.8571422411395,0,0,0,-5.71428448227899,7.24337462880486E-06" />
  <path d="M823.830025102864,269.968491679974l0.739482969389988,-0.0973543525195468l0.68908864291808,-0.285430491103525l0.591733306921894,-0.454052478286462l0.454053461763101,-0.591734290398534l0.285429507626886,-0.689087659441441l0.0973553359961861,-0.739482969389988h-2.85714322461614z" />
  <path d="M823.830025102864,267.111342554498v-2.85714322461614l-0.739482969389988,0.0973543525195468l-0.68908864291808,0.285430491103525l-0.591733306921894,0.454052478286462l-0.454053461763101,0.591734290398534l-0.285429507626886,0.68908864291808l-0.0973553359961861,0.739482969389988z" />
  <path d="M805.474102395342,262.872983101231h12.7976186037053v4.46428567378981h-12.7976186037053z" />
  <path d="M806.027996438568,267.102121477529h12.3809520063833v4.46428567378981h-12.3809520063833z" />
  <path d="M631.694629963345,267.111342554498h10.3534303355745m2.8571422411395,0h2.85714322461614m2.8571422411395,0h11.4285719149879m2.85714322461614,0h2.8571422411395m2.85714322461614,0h11.4285709315113m2.85714322461614,0h2.85714322461614m2.8571422411395,0h11.4285719149879m2.8571422411395,0h2.85714322461614m2.85714322461614,0h11.4285709315113m2.85714322461614,0h2.8571422411395m2.85714322461614,0h11.4285719149879m2.8571422411395,0h2.85714322461614m2.8571422411395,0h11.4285719149879m2.85714322461614,0h2.8571422411395m2.85714322461614,0h11.4285709315113m2.85714322461614,0h2.85714322461614m2.8571422411395,0h11.4285719149879m2.8571422411395,0h2.85714322461614m2.85714322461614,0h10.3534293520979" />
  <path d="M770.001217246987,234.664984812338h11.4285719149879m-11.4285719149879,4.99558725285987E-07a5.71428546575563,5.71428546575563,0,1,0,11.4285709315113,-1.49867611723819E-06m0,9.99117450571974E-07a5.71428546575563,5.71428546575563,0,1,0,-11.4285709315113,4.99558725285987E-07" />
  <path d="M754.872608536329,234.664984812338h15.1285693715925m-72.3784990647708,51.7981488945885h2.67258203154084m1.42857161230807,0h0.476190537436023m1.42857161230807,0h4.28571385344756m1.42857161230807,0h0.476190537436023m1.42857161230807,0h4.28571385344756m1.42857161230807,0h0.476190537436023m1.42857161230807,0h4.28571385344756m1.42857161230807,0h0.476190537436023m1.42857161230807,0h4.28571385344756m1.42857161230807,0h0.476190537436023m1.42857161230807,0h4.28571385344756m1.42857161230807,0h0.476190537436023m1.42857161230807,0h4.28571385344756m1.42857161230807,0h0.476190537436023m1.42857161230807,0h2.67258203154084m-57.2499257592717,-65.3820580548523v2.92912486331962m0,1.42857161230807v0.476190537436023m0,1.42857161230807v4.28571385344756m0,1.42857161230807v0.476190537436023m0,1.42857161230807v4.28571385344756m0,1.42857161230807v0.476190537436023m0,1.42857161230807v4.28571385344756m0,1.42857161230807v0.476190537436023m0,1.42857161230807v4.28571385344756m0,1.42857161230807v0.476190537436023m0,1.42857161230807v4.28571385344756m0,1.42857161230807v0.476190537436023m0,1.42857161230807v4.28571385344756m0,1.42857161230807v0.476190537436023m0,1.42857161230807v4.28571385344756m0,1.42857161230807v0.476190537436023m0,1.42857161230807v2.92912486331962m57.2499257592717,-65.3820619887589h-2.67258203154084m-1.42857161230807,0h-0.476190537436023m-1.42857161230807,0h-4.28571385344756m-1.42857161230807,0h-0.476190537436023m-1.42857161230807,0h-4.28571385344756m-1.42857161230807,0h-0.476190537436023m-1.42857161230807,0h-4.28571385344756m-1.42857161230807,0h-0.476190537436023m-1.42857161230807,0h-4.28571385344756m-1.42857161230807,0h-0.476190537436023m-1.42857161230807,0h-4.28571385344756m-1.42857161230807,0h-0.476190537436023m-1.42857161230807,0h-4.28571385344756m-1.42857161230807,0h-0.476190537436023m-1.42857161230807,0h-2.67258203154084m57.2499257592717,65.3820619887589v-2.92912486331962m0,-1.42857161230807v-0.476190537436023m0,-1.42857161230807v-4.28571385344756m0,-1.42857161230807v-0.476190537436023m0,-1.42857161230807v-4.28571385344756m0,-1.42857161230807v-0.476190537436023m0,-1.42857161230807v-4.28571385344756m0,-1.42857161230807v-0.476190537436023m0,-1.42857161230807v-4.28571385344756m0,-1.42857161230807v-0.476190537436023m0,-1.42857161230807v-4.28571385344756m0,-1.42857161230807v-0.476190537436023m0,-1.42857161230807v-4.28571385344756m0,-1.42857161230807v-0.476190537436023m0,-1.42857161230807v-4.28571385344756m0,-1.42857161230807v-0.476190537436023m0,-1.42857161230807v-2.92912486331962m-0.836838305386174,-2.02030491922996l0.836838305386174,2.02030491922996m-2.85714322461614,-2.85714322461614l2.02030491922996,0.836838305386174m-58.4333943400688,0l2.02030491922996,-0.836838305386174m-2.8571422411395,2.85714322461614l0.836837321909534,-2.02030491922996m0,66.5655227017428l-0.836837321909534,-2.02030491922996m2.8571422411395,2.8571422411395l-2.02030491922996,-0.836837321909534m58.4333943400688,0l-2.02030491922996,0.836837321909534m2.85714322461614,-2.8571422411395l-0.836838305386174,2.02030491922996" />
  <path d="M820.170421982263,523.93319058974a2.8571422411395,2.8571422411395,0,1,1,-5.71428448227899,7.24337462880486E-06m5.71428448227899,-7.24337462880486E-06a2.8571422411395,2.8571422411395,0,0,0,-5.71428448227899,7.24337462880486E-06" />
  <path d="M817.313272856787,526.790339715216l0.739482969389988,-0.0973543525195468l0.689087659441441,-0.285430491103525l0.591734290398534,-0.454052478286462l0.454052478286462,-0.591734290398534l0.285430491103525,-0.689087659441441l0.0973543525195468,-0.739482969389988h-2.8571422411395z" />
  <path d="M817.313272856787,523.93319058974v-2.85714322461614l-0.739482969389988,0.0973543525195468l-0.68908864291808,0.285430491103525l-0.591734290398534,0.454052478286462l-0.454052478286462,0.591734290398534l-0.285430491103525,0.689087659441441l-0.0973543525195468,0.739483952866627z" />
  <path d="M798.95728720676,519.694831136472h12.7976186037053v4.46428567378981h-12.7976186037053z" />
  <path d="M801.715931312049,523.92396951277h10.1785711395454v4.46428567378981h-10.1785711395454z" />
  <path d="M629.301807696606,523.93319058974h8.29144469289642m2.85714322461614,0h2.85714322461614m2.8571422411395,0h11.4285719149879m2.8571422411395,0h2.85714322461614m2.85714322461614,0h11.4285709315113m2.85714322461614,0h2.8571422411395m2.85714322461614,0h11.4285709315113m2.85714322461614,0h2.85714322461614m2.8571422411395,0h11.4285719149879m2.8571422411395,0h2.85714322461614m2.85714322461614,0h11.4285709315113m2.85714322461614,0h2.8571422411395m2.85714322461614,0h11.4285719149879m2.8571422411395,0h2.85714322461614m2.8571422411395,0h11.4285719149879m2.85714322461614,0h2.8571422411395m2.85714322461614,0h11.4285709315113m2.85714322461614,0h2.85714322461614m2.8571422411395,0h8.29144567637306" />
  <path d="M753.62917935179,577.371660501404h11.4285719149879m-11.4285719149879,4.99558666666211E-07a5.71428546575563,5.71428546575563,0,1,0,11.4285709315113,-1.49867611723819E-06m0,9.99117450571974E-07a5.71428546575563,5.71428546575563,0,1,0,-11.4285709315113,4.99558666666211E-07" />
  <path d="M750.056940428008,552.971935529714l7.25389355758852,19.0592068522513m-58.5123635802941,-18.8723423568869h4.40679753031898m1.42857161230807,0h0.476190537436023m1.42857161230807,0h4.28571385344756m1.42857161230807,0h0.476190537436023m1.42857161230807,0h4.28571385344756m1.42857161230807,0h0.476190537436023m1.42857161230807,0h4.28571385344756m1.42857161230807,0h0.476190537436023m1.42857161230807,0h4.28571385344756m1.42857161230807,0h0.476190537436023m1.42857161230807,0h4.28571385344756m1.42857161230807,0h0.476190537436023m1.42857161230807,0h4.40679753031898m-53.0993120917582,-42.5281970698983v2.93076628583053m0,1.42857161230807v0.476190537436023m0,1.42857161230807v4.28571385344756m0,1.42857161230807v0.476190537436023m0,1.42857161230807v4.28571385344756m0,1.42857161230807v0.476190537436023m0,1.42857161230807v4.28571385344756m0,1.42857161230807v0.476190537436023m0,1.42857161230807v4.28571385344756m0,1.42857161230807v0.476190537436023m0,1.42857161230807v2.93076530235389m53.0993120917582,-42.5281970698983h-4.40679753031898m-1.42857161230807,0h-0.476190537436023m-1.42857161230807,0h-4.28571385344756m-1.42857161230807,0h-0.476190537436023m-1.42857161230807,0h-4.28571385344756m-1.42857161230807,0h-0.476190537436023m-1.42857161230807,0h-4.28571385344756m-1.42857161230807,0h-0.476190537436023m-1.42857161230807,0h-4.28571385344756m-1.42857161230807,0h-0.476190537436023m-1.42857161230807,0h-4.28571385344756m-1.42857161230807,0h-0.476190537436023m-1.42857161230807,0h-4.40679753031898m53.0993120917582,42.5281970698983v-2.93076530235389m0,-1.42857161230807v-0.476190537436023m0,-1.42857161230807v-4.28571385344756m0,-1.42857161230807v-0.476190537436023m0,-1.42857161230807v-4.28571385344756m0,-1.42857161230807v-0.476190537436023m0,-1.42857161230807v-4.28571385344756m0,-1.42857161230807v-0.476190537436023m0,-1.42857161230807v-4.28571385344756m0,-1.42857161230807v-0.476190537436023m0,-1.42857161230807v-2.93076628583053m-0.836838305386174,-2.02030491922996l0.836838305386174,2.02030491922996m-2.85714322461614,-2.8571422411395l2.02030491922996,0.836837321909534m-54.2827767386487,0l2.0203059027066,-0.836837321909534m-2.85714322461614,2.8571422411395l0.836837321909534,-2.02030491922996m0,43.7116656506954l-0.836837321909534,-2.02030491922996m2.85714322461614,2.85714322461614l-2.0203059027066,-0.836838305386174m54.2827767386487,0l-2.02030491922996,0.836838305386174m2.85714322461614,-2.85714322461614l-0.836838305386174,2.02030491922996" />
  <path d="M339.643043676225,262.465839508206a2.8571422411395,2.8571422411395,0,1,1,-5.71428448227899,7.24337462880486E-06m5.71428448227899,-7.24337462880486E-06a2.8571422411395,2.8571422411395,0,0,0,-5.71428448227899,7.24337462880486E-06" />
  <path d="M336.785894550749,265.322988633682l0.739482969389988,-0.0973543525195468l0.689087659441441,-0.285430491103525l0.591734290398534,-0.454052478286462l0.454053461763101,-0.591734290398534l0.285429507626886,-0.68908864291808l0.0973543525195468,-0.739482969389988h-2.8571422411395z" />
  <path d="M336.785894550749,262.465839508206v-2.8571422411395l-0.739482969389988,0.0973543525195468l-0.68908864291808,0.285430491103525l-0.591733306921894,0.454052478286462l-0.454053461763101,0.591734290398534l-0.285430491103525,0.689087659441441l-0.0973543525195468,0.739482969389988z" />
  <path d="M318.429908900722,258.227464319313h12.7976186037053v4.46428567378981h-12.7976186037053z" />
  <path d="M318.983865886453,262.456586959984h12.38095298986v4.46428567378981h-12.38095298986z" />
  <path d="M107.536113073833,262.465839508206h8.91060421285713m2.8571422411395,0h2.85714322461614m2.8571422411395,0h11.4285719149879m2.85714322461614,0h2.8571422411395m2.85714322461614,0h11.4285709315113m2.85714322461614,0h2.85714322461614m2.8571422411395,0h11.4285719149879m2.8571422411395,0h2.85714322461614m2.85714322461614,0h11.4285709315113m2.85714322461614,0h2.8571422411395m2.85714322461614,0h11.4285719149879m2.8571422411395,0h2.85714322461614m2.8571422411395,0h11.4285719149879m2.85714322461614,0h2.8571422411395m2.85714322461614,0h11.4285709315113m2.85714322461614,0h2.85714322461614m2.8571422411395,0h11.4285719149879m2.8571422411395,0h2.85714322461614m2.85714322461614,0h11.4285709315113m2.85714322461614,0h2.8571422411395m2.85714322461614,0h11.4285709315113m2.85714322461614,0h2.85714322461614m2.8571422411395,0h8.91060421285713" />
  <path d="M336.52040306503,525.089129692451a2.8571422411395,2.8571422411395,0,1,1,-5.71428448227899,7.24337462880486E-06m5.71428448227899,-7.24337462880486E-06a2.8571422411395,2.8571422411395,0,0,0,-5.71428448227899,7.24337462880486E-06" />
  <path d="M333.663253939554,527.946278817927l0.739482969389988,-0.0973553359961861l0.68908864291808,-0.285429507626886l0.591734290398534,-0.454053461763101l0.454052478286462,-0.591733306921894l0.285430491103525,-0.68908864291808l0.0973543525195468,-0.739482969389988h-2.85714322461614z" />
  <path d="M333.663253939554,525.089129692451v-2.8571422411395l-0.739482969389988,0.0973543525195468l-0.689087659441441,0.285429507626886l-0.591734290398534,0.454053461763101l-0.454053461763101,0.591733306921894l-0.285429507626886,0.68908864291808l-0.0973543525195468,0.739482969389988z" />
  <path d="M315.307299760779,520.850770239183h12.7976195871819v4.46428567378981h-12.7976195871819z" />
  <path d="M318.065943866068,525.079908615481h10.1785711395454v4.46428567378981h-10.1785711395454z" />
  <path d="M116.865333134711,525.089129692451h12.6846800803601m2.8571422411395,0h2.85714322461614m2.8571422411395,0h11.4285719149879m2.85714322461614,0h2.8571422411395m2.85714322461614,0h11.4285709315113m2.85714322461614,0h2.85714322461614m2.8571422411395,0h11.4285719149879m2.8571422411395,0h2.85714322461614m2.85714322461614,0h11.4285709315113m2.85714322461614,0h2.8571422411395m2.85714322461614,0h11.4285719149879m2.8571422411395,0h2.85714322461614m2.8571422411395,0h11.4285719149879m2.85714322461614,0h2.8571422411395m2.85714322461614,0h11.4285709315113m2.85714322461614,0h2.85714322461614m2.8571422411395,0h11.4285719149879m2.8571422411395,0h2.85714322461614m2.85714322461614,0h11.4285709315113m2.85714322461614,0h2.8571422411395m2.85714322461614,0h12.6846800803601" />
  <path d="M563.508384966994,525.149239784642a2.8571422411395,2.8571422411395,0,1,1,-5.71428448227899,7.24337462880486E-06m5.71428448227899,-7.24337462880486E-06a2.8571422411395,2.8571422411395,0,0,0,-5.71428448227899,7.24337462880486E-06" />
  <path d="M560.651235841518,528.006357438865l0.739482969389988,-0.0973543525195468l0.68908864291808,-0.285429507626886l0.591733306921894,-0.454053461763101l0.454053461763101,-0.591734290398534l0.285429507626886,-0.689087659441441l0.0973543525195468,-0.739482969389988h-2.8571422411395z" />
  <path d="M560.651235841518,525.149239784642v-2.85714322461614l-0.739482969389988,0.0973543525195468l-0.68908864291808,0.285430491103525l-0.591733306921894,0.454052478286462l-0.454053461763101,0.591734290398534l-0.285429507626886,0.68908864291808l-0.0973553359961861,0.739482969389988z" />
  <path d="M542.295250191491,520.910848860122h12.7976186037053v4.46428567378981h-12.7976186037053z" />
  <path d="M545.053894296779,525.13998723642h10.1785721230221v4.46428567378981h-10.1785721230221z" />
  <path d="M387.579048337219,525.149239784642h10.8218042006818m2.85714322461614,0h2.8571422411395m2.85714322461614,0h11.4285719149879m2.8571422411395,0h2.85714322461614m2.8571422411395,0h11.4285719149879m2.85714322461614,0h2.8571422411395m2.85714322461614,0h11.4285709315113m2.85714322461614,0h2.85714322461614m2.8571422411395,0h11.4285719149879m2.8571422411395,0h2.85714322461614m2.85714322461614,0h11.4285709315113m2.85714322461614,0h2.8571422411395m2.85714322461614,0h11.4285709315113m2.85714322461614,0h2.85714322461614m2.8571422411395,0h11.4285719149879m2.85714322461614,0h2.8571422411395m2.85714322461614,0h10.8218042006818" />
  <path d="M866.559992240071,140.479991978258h107.519999792576v-20.7999998427928h-107.519999792576" />
  <path d="M862.285692616499,648.00001174584h114.285713249019m-114.285713249019,8.57142869037177h114.285713249019m-114.285713249019,8.57142770689513h114.285713249019m-114.285713249019,8.57142869037177h114.285713249019m-114.285713249019,8.57142869037177h114.285713249019m-114.285713249019,22.8571418630225h114.285713249019m-114.285713249019,-534.285690556413h114.285713249019m-117.142854506682,-82.8571436791016v628.571422869606m2.85714322461614,-2.85714322461614v-156.121235920173m0,0h114.285713249019m0,0v156.121235920173m0,0h-114.285713249019m0,-287.868458881913v128.890097439704m0,0h114.285713249019m0,0v-128.890097439704m0,0h-114.285713249019m0,-237.845815769325v-97.142857835229m0,0h114.285713249019m0,0v97.142857835229m0,0h-114.285713249019m0,2.8571422411395h114.285713249019m0,232.131533253999v-232.131533253999m-114.285713249019,0v232.131533253999m0,0h114.285713249019m2.8571422411395,-334.988665736741v628.571422869606m-117.142854506682,-103.012277889537h114.285713249019m31.4285695699177,137.29799658493v-685.714279494115m-960.000029057264,0h960.000029057264m-960.000029057264,685.714279494115v-685.714279494115m0,685.714279494115h960.000029057264m-931.42860074501,-662.857149432812v628.571422869606m902.857172432755,-628.571422869606h-902.857172432755m0,628.571422869606h902.857172432755" />
  <path d="M897.608711660657,177.965668284318h43.0952382288385v4.46428567378981h-43.0952382288385z" />
  <path d="M863.431686803434,706.328075737845h10.0000003026798v4.46428567378981h-10.0000003026798z" />
  <path d="M863.431686803434,657.754085847062h8.39285785350616v4.46428567378981h-8.39285785350616z" />
  <path d="M863.431686803434,666.337303471909h17.1428573807435v4.46428567378981h-17.1428573807435z" />
  <path d="M863.431686803434,674.894777612246h21.4880951743052v4.46428567378981h-21.4880951743052z" />
  <path d="M863.431686803434,649.202213589662h27.7380951176109v4.46428567378981h-27.7380951176109z" />
  <path d="M873.144407678928,204.636453246994h20.1785724257019v4.46428567378981h-20.1785724257019zm0,4.46428567378981h14.6428568133353v4.46428567378981h-14.6428568133353zm0,4.46428567378981h14.6428568133353v4.46428567378981h-14.6428568133353zm0,4.46428567378981h14.6428568133353v4.46428567378981h-14.6428568133353zm0,4.46428567378981h11.4880948716253v4.46428567378981h-11.4880948716253z" />
  <path d="M873.144407678928,238.297554127079h20.1785724257019v4.46428567378981h-20.1785724257019zm0,4.46428567378981h14.6428568133353v4.46428567378981h-14.6428568133353zm0,4.46428567378981h14.6428568133353v4.46428567378981h-14.6428568133353zm0,4.46428567378981h14.6428568133353v4.46428567378981h-14.6428568133353zm0,4.46428567378981h11.4880948716253v4.46428567378981h-11.4880948716253z" />
  <path d="M873.144407678928,273.04449189503h20.1785724257019v4.46428567378981h-20.1785724257019zm0,4.46428567378981h14.6428568133353v4.46428567378981h-14.6428568133353zm0,4.46428567378981h14.6428568133353v4.46428567378981h-14.6428568133353zm0,4.46428567378981h14.6428568133353v4.46428567378981h-14.6428568133353zm0,4.46428567378981h11.4880948716253v4.46428567378981h-11.4880948716253z" />
  <path d="M873.144407678928,307.79142966298h20.1785724257019v4.46428567378981h-20.1785724257019zm0,4.46428567378981h14.6428568133353v4.46428567378981h-14.6428568133353zm0,4.46428567378981h14.6428568133353v4.46428567378981h-14.6428568133353zm0,4.46428567378981h14.6428568133353v4.46428567378981h-14.6428568133353zm0,4.46428567378981h11.4880948716253v4.46428567378981h-11.4880948716253z" />
  <path d="M873.144407678928,342.538398902183h20.1785724257019v4.46428567378981h-20.1785724257019zm0,4.46428567378981h14.6428568133353v4.46428567378981h-14.6428568133353zm0,4.46428567378981h14.6428568133353v4.46428567378981h-14.6428568133353zm0,4.46428567378981h14.6428568133353v4.46428567378981h-14.6428568133353zm0,4.46428567378981h11.4880948716253v4.46428567378981h-11.4880948716253z" />
  <path d="M986.105244142052,714.699491833662v-38.3999988019466h-4.47999966353178v38.3999988019466z" />
  <path d="M631.142435367751,357.911822485696a2.8571422411395,2.8571422411395,0,1,0,-5.71428448227899,2.4977927471333E-07m0,0a2.8571422411395,2.8571422411395,0,1,0,5.71428448227899,-7.49337882759765E-07" />
  <path d="M631.142435367751,357.911822485696h199.262107465073" />
  <path d="M631.142435367751,640.461387932515a2.8571422411395,2.8571422411395,0,1,0,-5.71428448227899,2.49779333333106E-07m0,0a2.8571422411395,2.8571422411395,0,1,0,5.71428448227899,-7.49337882759765E-07" />
  <path d="M631.142435367751,640.461387932515h184.761932459083" />
  <path d="M118.40699964315,357.911822485696a2.8571422411395,2.8571422411395,0,1,0,-5.71428448227899,2.4977927471333E-07m0,0a2.8571422411395,2.8571422411395,0,1,0,5.71428448227899,-7.49337882759765E-07" />
  <path d="M118.40699964315,357.911822485696h171.999851783737" />
  <path d="M118.40699964315,640.461387932515a2.8571422411395,2.8571422411395,0,1,0,-5.71428448227899,2.49779333333106E-07m0,0a2.8571422411395,2.8571422411395,0,1,0,5.71428448227899,-7.49337882759765E-07" />
  <path d="M118.40699964315,640.461387932515h163.698616580897" />
  <path d="M380.165019212367,357.911822485696a2.8571422411395,2.8571422411395,0,1,0,-5.71428448227899,2.4977927471333E-07m0,0a2.8571422411395,2.8571422411395,0,1,0,5.71428448227899,-7.49337882759765E-07" />
  <path d="M380.165019212367,357.911822485696h182.514979447478" />
  <path d="M380.165019212367,640.461387932515a2.8571422411395,2.8571422411395,0,1,0,-5.71428448227899,2.49779333333106E-07m0,0a2.8571422411395,2.8571422411395,0,1,0,5.71428448227899,-7.49337882759765E-07" />
  <path d="M380.165019212367,640.461387932515h182.514979447478" />
  <path d="M976.567629315223,554.53977038457h-114.281913095285m114.281913095285,-5.47633919374847h-114.281913095285m114.281913095285,-5.47633919374847h-114.281913095285m114.281913095285,-5.47634017722511h-114.281913095285m114.281913095285,-5.47633919374847h-114.281913095285m114.281913095285,-5.47633919374847h-114.281913095285m114.281913095285,-5.47633919374847h-114.281913095285m114.281913095285,-5.47633919374847h-114.281913095285m114.281913095285,-5.47633919374847h-114.281913095285m114.281913095285,-5.47633919374847h-114.281913095285m114.281913095285,-5.47633919374847h-114.281913095285m114.281913095285,-5.47633919374847h-114.281913095285m114.281913095285,-5.47633919374847h-114.281913095285m114.281913095285,-5.47633919374847h-114.281913095285m114.281913095285,-5.47633919374847h-114.281913095285m114.281913095285,-5.47633919374847h-114.281913095285m114.281913095285,-5.47633919374847h-114.281913095285m114.281913095285,-5.47633919374847h-114.281913095285m114.281913095285,-5.47634017722511h-114.281913095285m114.281913095285,-5.47633919374847h-114.281913095285m114.281913095285,-5.47633919374847h-114.281913095285m114.281913095285,-5.47633919374847h-114.281913095285m114.281913095285,-5.47633919374847h-114.281913095285m114.281913095285,-8.21450829888438h-22.856382619057m0,0h-68.568384679299m0,0h-22.8571418630225m114.281913095285,8.21450829888438v120.479460295513m0,-128.693976462211v8.21450829888438m-22.856382619057,0v120.479460295513m0,-128.693976462211v8.21450829888438m-68.568384679299,0v120.479460295513m0,-128.693976462211v8.21450829888438m-22.8571418630225,0v120.479460295513m0,-128.693976462211v8.21450829888438" />
</svg>